<svg width="66" height="10" viewBox="0 0 66 10" fill="none" xmlns="http://www.w3.org/2000/svg">
<path d="M1 1.02754C10.6617 1.02754 20.3235 1.02754 29.9852 1.02754C39.3795 1.02754 48.7859 0.883742 58.1708 1.25334C60.7542 1.35508 62.0071 1.25334 64.5926 1.25334C66.1696 1.25334 62.7684 1.34018 61.1915 1.34018C56.6323 1.34018 52.3846 1.90182 47.9316 2.6863C41.7042 3.78335 35.4873 4.88341 29.23 5.87354C22.9501 6.86727 16.4602 7.5931 10.0398 7.5931C9.69785 7.5931 8.76477 7.43677 9.59561 7.43677C11.0911 7.43677 12.5867 7.43677 14.0822 7.43677C23.438 7.43677 32.7099 8.02294 42.0457 8.40945C43.8184 8.48284 46.0339 8.3919 47.7539 8.76552C47.9676 8.81195 48.8289 8.82281 48.3758 9" stroke="#FFC501" stroke-width="2" stroke-linecap="round" stroke-linejoin="round"/>
</svg>
