<svg width="98" height="42" viewBox="0 0 98 42" fill="none" xmlns="http://www.w3.org/2000/svg">
<path d="M8.78699 12.4364C8.78699 13.3314 8.78699 10.6464 8.78699 9.75139C8.78699 8.29877 10.8839 6.95006 12.5381 6.57542C14.7883 6.06578 16.3495 7.0949 17.7093 8.40891C18.2779 8.9584 18.8063 9.59006 19.2684 10.1989C19.2924 10.2306 19.6411 10.9095 19.7623 10.6899C20.1621 9.96561 20.3762 9.16414 20.7966 8.42134C21.9111 6.45192 23.4323 4.79451 25.2423 3.213C26.0924 2.47016 27.0548 1.41593 28.345 1.16198C28.6487 1.1022 29.1739 0.909904 29.4873 1.0501C30 1.27944 30.6417 2.04896 31.0078 2.41745C31.6127 3.02632 32.3946 3.46648 32.976 4.10177C33.2403 4.39071 33.6351 4.6709 33.933 4.94082C34.2071 5.18913 34.1977 5.22073 34.3807 4.94082C34.6993 4.45332 35.8309 4.03972 36.372 3.76615C37.3748 3.25909 38.5188 2.89402 39.6291 2.56661C40.2411 2.38615 40.9782 2.25585 41.6358 2.25585C42.4301 2.25585 43.0924 2.93437 43.658 3.31865C45.0396 4.25736 46.2452 5.36371 46.6064 6.81782C46.6762 7.09891 46.7655 7.40631 46.8611 7.67551C46.9589 7.95123 47.437 6.75359 47.4785 6.66865C48.469 4.64408 50.5702 2.7511 53.4756 2.70335C53.9591 2.6954 54.8762 2.57059 55.3202 2.77172C55.9847 3.07269 56.5916 3.93314 56.9874 4.43118C57.4676 5.03544 58.2766 5.99281 58.3844 6.7308C58.4007 6.84235 59.3053 5.92859 59.5035 5.77366C60.8235 4.74202 62.085 3.6434 63.5865 2.77172C64.3899 2.30532 66.9456 1.08241 67.9859 1.827C69.0236 2.56982 69.3269 3.8977 69.6067 4.94082C69.9073 6.06129 70.3063 7.32172 70.3322 8.47106C70.3352 8.60145 70.319 9.41011 70.4094 9.28525C71.2385 8.14068 72.5145 7.21553 73.7977 6.4014C74.8688 5.72187 75.9858 4.8302 77.3867 4.63006C77.8225 4.5678 78.7383 4.28831 78.9766 4.74194C79.8419 6.38874 80.1329 8.12173 79.8874 9.92542C79.819 10.4277 79.6275 10.8891 79.4938 11.3736C79.4386 11.5735 79.3504 11.4493 79.3703 11.3052C79.4317 10.8601 79.9261 10.6137 80.3351 10.3667C81.2121 9.83701 83.2092 8.57672 84.3331 9.44063C85.9641 10.6943 87.4307 12.1209 88.5241 13.7167C89.3704 14.9519 89.224 16.1178 87.9684 17.1288C87.8635 17.2133 87.1134 17.5432 87.1734 17.4707C87.4982 17.0784 89.8061 17.2469 90.307 17.2469C92.6169 17.2469 93.6774 17.8597 95.0692 19.2793C96.2954 20.53 97.4753 23.2865 96.8058 24.9041C96.4534 25.7554 95.5314 26.3558 94.7219 26.9178C94.287 27.2197 93.8459 27.5381 93.3326 27.7506C93.1315 27.8339 92.7085 27.894 92.5608 28.0427C92.2531 28.3525 92.1251 26.4552 92.144 26.1968C92.1742 25.7833 92.8307 27.0655 92.8386 27.0856C93.3014 28.2568 93.3943 29.6218 93.3943 30.8458C93.3943 32.3547 93.3465 33.4973 92.252 34.7862C90.954 36.315 89.3244 37.5554 87.5593 38.7267C86.0533 39.7261 84.5286 40.3551 82.6505 40.7839C81.3568 41.0794 79.8969 40.9968 78.5599 40.9642C76.6667 40.918 75.1947 38.8893 75.1947 37.5023C75.1947 37.3798 75.0858 36.8248 75.3336 36.8248C75.5935 36.8248 75.7432 37.426 75.7504 37.5831C75.8114 38.9088 75.4739 40.2335 73.6665 40.6783C71.0214 41.3291 68.0808 40.5476 65.8171 39.4539C63.5521 38.3595 62.1319 37.1859 61.0549 35.2586C60.9139 35.0062 61.1171 34.7881 61.2324 35.2151C61.3886 35.7935 61.4408 36.4501 61.4408 37.0424C61.4408 38.2757 59.4811 38.2692 58.2609 38.3662C56.5757 38.5002 54.0158 38.7234 52.5494 37.9436C52.2526 37.7858 50.6782 36.5853 50.5967 36.8808C50.5337 37.1089 49.8268 37.3074 49.601 37.3842C48.6053 37.7228 47.6016 38.0476 46.6064 38.3911C44.5013 39.1175 42.2368 39.1742 39.9841 39.1742C38.853 39.1742 37.3882 38.1488 37.1592 37.2475C37.1304 37.1339 37.0085 36.317 37.2055 36.2717C37.3938 36.2284 37.5452 36.5334 37.5452 36.657C37.5452 36.9948 37.4839 37.1166 37.1592 37.3593C36.3494 37.9649 34.8845 38.4671 33.9021 38.8386C30.2696 40.2121 26.1867 40.7404 22.2013 40.7404C21.5232 40.7404 20.8562 40.8905 20.457 40.3799C20.1807 40.0266 20.1068 39.5687 19.9707 39.1742C19.9191 39.0246 19.6123 38.4497 19.7932 38.3041C19.9548 38.1739 19.4283 38.5453 19.2066 38.59C16.1177 39.2118 12.7185 38.8099 9.85211 37.7882C8.74402 37.3932 7.34421 36.9808 6.45609 36.2903C5.8683 35.8333 5.99674 34.7575 6.00843 34.1647C6.02427 33.3612 6.62576 32.7736 7.25106 32.1945C7.43183 32.0271 7.92665 31.5804 8.23128 31.5668C8.75967 31.5431 7.77144 31.5486 7.59839 31.4984C5.97887 31.0289 4.88842 29.1247 4.14061 28.0365C2.08644 25.0475 1.00701 21.2366 1.00701 17.8063C1.00701 17.3694 0.887841 16.6876 1.63219 16.6876C3.01487 16.6876 4.3616 16.631 5.59164 17.048C5.87944 17.1456 6.68581 17.548 6.55642 17.0791C6.46745 16.7567 6.14094 16.4986 6.00843 16.1903C5.70063 15.4743 5.55507 14.7368 5.34466 14.0026C5.16763 13.3849 5.17486 12.626 5.17486 11.9889C5.17486 11.2508 5.32855 11.1515 5.97756 10.7334C6.46485 10.4195 7.71741 10.7254 8.23128 10.9323C9.05066 11.2622 9.45082 11.8647 9.75949 12.5482" stroke="#FFC501" stroke-width="2" stroke-linecap="round"/>
</svg>
