<svg width="66" height="10" viewBox="0 0 66 10" fill="none" xmlns="http://www.w3.org/2000/svg">
<path d="M1 7.40338C1.0273 7.16896 1.49101 6.70134 1.65202 6.52851C2.32733 5.80362 2.87293 4.98187 3.37377 4.06793C3.9178 3.07516 4.37434 1.89152 5.03438 1.00589C5.10632 0.909365 5.70099 2.02968 5.96148 2.18696C9.04682 4.0499 12.2348 5.80303 15.263 7.75332C15.6606 8.00944 16.6927 8.95005 17.1375 8.97814C17.8899 9.02565 17.8403 8.40486 18.0137 7.75332C18.167 7.17719 18.1271 6.59537 18.3397 6.01452C18.5914 5.32667 18.9525 4.66411 19.1547 3.95857C19.3213 3.37742 19.6574 2.94138 19.8883 2.38381C20.1024 1.86651 20.7345 1.23895 21.2738 1.60736C22.4526 2.41258 23.9618 2.83329 25.2369 3.47739C27.1377 4.43759 29.3299 5.11593 31.0643 6.41915C31.5019 6.74793 32.635 7.39309 32.9083 7.90643C33.9061 9.78072 36.276 5.21206 36.7593 4.54911C37.7431 3.19979 38.549 2.41481 40.0602 3.22587C41.6958 4.10374 42.8329 5.88736 44.3187 7.00968C44.7794 7.3577 45.2005 8.19076 45.8367 8.19076C46.6842 8.19076 47.7075 7.18212 48.3123 6.60506C48.9702 5.97731 49.6633 5.59159 50.4212 5.13965C50.8961 4.85643 51.3932 4.2229 51.8984 4.06793C52.4337 3.90377 52.9203 4.24311 53.3451 4.53818C54.5775 5.39418 56.0837 6.29678 57.1146 7.40338C57.9652 8.31639 57.955 9.93382 59.1726 8.30012C59.9907 7.20231 61.172 5.37168 62.4734 4.88812C63.513 4.50183 64.0775 4.12661 65 3.46646" stroke="#FFC501" stroke-width="2" stroke-linecap="round"/>
</svg>
