<svg width="66" height="10" viewBox="0 0 66 10" fill="none" xmlns="http://www.w3.org/2000/svg">
<path d="M1 3.357C1 4.89845 1 6.43991 1 7.98136C1 8.56059 1.02214 9.45472 1.89888 8.72723C3.83278 7.12252 5.54193 5.30038 7.61174 3.80452C8.14341 3.42027 8.80269 2.60608 9.53933 2.47025C9.78896 2.42422 10.3168 2.9603 10.5281 3.0918C13.0565 4.66531 15.4752 6.44417 18.2185 7.76589C18.7915 8.04197 19.703 8.75326 20.3258 8.86811C21.0304 8.99803 21.5278 8.1691 21.9338 7.83219C24.513 5.69208 26.9148 3.40281 29.5443 1.30173C30.4079 0.611673 30.9973 1.24773 31.6517 1.79068C33.1262 3.01419 34.7996 4.38419 36.5056 5.37084C37.3382 5.85237 38.0653 6.38823 38.7928 6.9703C39.1459 7.25283 39.7102 7.44536 40.0112 7.7576C40.3131 8.07071 40.6663 7.3379 40.7703 7.20235C41.3873 6.3978 42.3445 5.80866 43.0674 5.07249C43.3429 4.79198 45.5887 2.48221 46.2035 2.99235C47.6297 4.17582 49.3288 5.15183 51.0574 6.04211C52.0676 6.56237 53.0698 7.20814 53.9938 7.83219C54.459 8.14644 54.8713 8.62949 55.392 8.8764C55.9691 9.15003 56.3156 8.90576 56.7703 8.54491C58.1764 7.42884 59.6168 6.43884 60.9351 5.23824C61.9966 4.27151 63.0026 3.2496 64.1011 2.31279C64.4346 2.02843 64.7941 1.75938 65 1.41775" stroke="#FFC501" stroke-width="2" stroke-linecap="round"/>
</svg>
