<svg width="320.43" height="" viewBox="0 0 240 320" fill="none" xmlns="http://www.w3.org/2000/svg">
<path fill="rgb(255,255,255)" fill-opacity="1" d=" M28.75,30.729999542236328 C30.6299991607666,30.350000381469727 32.63999938964844,29.8799991607666 33.88999938964844,28.420000076293945 C36.040000915527344,25.889999389648438 34.88999938964844,21.5 37.34000015258789,19.25 C39.2400016784668,17.5 42.220001220703125,18.040000915527344 44.720001220703125,18.670000076293945 C44.720001220703125,18.670000076293945 50.97999954223633,20.260000228881836 50.97999954223633,20.260000228881836 C51.630001068115234,20.420000076293945 52.349998474121094,20.59000015258789 52.959999084472656,20.290000915527344 C53.5,20.040000915527344 53.81999969482422,19.479999542236328 54.11000061035156,18.959999084472656 C56.06999969482422,15.470000267028809 58.209999084472656,12.079999923706055 60.5099983215332,8.789999961853027 C61.7400016784668,7.039999961853027 63.290000915527344,5.159999847412109 65.41999816894531,5.019999980926514 C69.83000183105469,4.739999771118164 71.41000366210938,11.619999885559082 75.69999694824219,12.670000076293945 C76.47000122070312,12.859999656677246 77.27999877929688,12.84000015258789 78.0199966430664,13.119999885559082 C80.38999938964844,14 80.7300033569336,17.170000076293945 80.66999816894531,19.700000762939453 C83.62999725341797,19.459999084472656 86.52999877929688,21.950000762939453 86.75,24.90999984741211 C90.61000061035156,23.610000610351562 94.86000061035156,26.959999084472656 96.3499984741211,30.760000228881836 C96.72000122070312,31.700000762939453 97.0199966430664,32.7400016784668 97.79000091552734,33.380001068115234 C99.6500015258789,34.95000076293945 103.08999633789062,33.40999984741211 104.62999725341797,35.290000915527344 C77.61000061035156,35.54999923706055 16.829999923706055,36.04999923706055 4.78000020980835,35.66999816894531 C4.78000020980835,35.66999816894531 20.719999313354492,32.31999969482422 28.739999771118164,30.700000762939453 C28.739999771118164,30.700000762939453 28.75,30.729999542236328 28.75,30.729999542236328z"></path>
</svg>
