<?xml version="1.0" encoding="UTF-8"?><svg id="Layer_2" xmlns="http://www.w3.org/2000/svg" viewBox="0 0 643.18 649.07"><defs><style>.cls-1{fill:#fffbee;}.cls-2{fill:#fff4d4;}.cls-3{fill:#fcd981;}.cls-4{fill:#c9c9c9;}.cls-5{fill:#3ece97;}</style></defs><g id="Layer_1-2"><g><rect class="cls-2" x=".15" y=".09" width="642.63" height="648.98"/><path class="cls-4" d="M138.92,634.05c-1.98,0-3.71-1.48-3.96-3.5l-6.8-53.55c-.28-2.19,1.27-4.19,3.46-4.47,2.2-.29,4.19,1.27,4.47,3.46l6.8,53.55c.28,2.19-1.27,4.19-3.46,4.47-.17,.02-.34,.03-.51,.03Z"/><path class="cls-4" d="M71.66,124.16h57.54v157.17h-59.74s2.2-158.75,2.2-157.17Z"/><g><path class="cls-5" d="M95.36,.09L45.84,78.49H0v-1.5C.02,66.26,.13,7.6,.15,.09H95.36Z"/><polygon class="cls-5" points="642.78 649.07 543.41 649.07 583.91 562.67 584.89 560.58 584.89 560.57 580.72 499.45 642.54 475.14 642.54 476.75 642.78 649.07"/><polygon class="cls-5" points="64.85 649.07 .15 649.07 .01 568.92 0 564.75 .15 564.77 45.84 570.3 46.49 572.99 64.85 649.07"/><polygon class="cls-5" points="564.05 49.32 642.86 79.29 642.78 .1 556.1 .17 564.05 49.32"/></g><polygon class="cls-1" points="522.22 507.89 384.49 493.84 397.24 413.08 400.21 413.55 387.95 491.17 522.52 504.91 522.22 507.89"/><polygon class="cls-1" points="440.27 595.51 333.33 588.47 333.53 585.48 437.75 592.34 452.82 500.6 468.11 421.37 471.05 421.94 455.77 501.13 440.27 595.51"/><rect class="cls-1" x="456.96" y="585.87" width="3" height="55.01" transform="translate(-299.44 503.84) rotate(-45)"/><rect class="cls-1" x="127.7" y="124.16" width="3" height="157.17"/><rect class="cls-1" x="69.35" y="124.16" width="3" height="157.17"/><rect class="cls-1" x="97.83" y="137.81" width="3" height="64.76" transform="translate(-96.01 196.1) rotate(-67.29)"/><rect class="cls-1" x="98.52" y="198.66" width="3" height="55.59" transform="translate(-128.86 320.79) rotate(-88.57)"/><polygon class="cls-1" points="97.13 .1 46.67 79.99 0 79.99 0 76.99 45.02 76.99 93.59 .09 97.11 .09 97.13 .1"/><polygon class="cls-1" points="642.9 82.4 563.5 50.72 564.6 47.92 642.9 78.57 642.9 82.4"/><polygon class="cls-1" points="63.31 649.07 44.91 572.85 44.38 570.65 45.84 570.3 47.3 569.95 48.07 573.13 66.4 649.07 63.31 649.07"/><polygon class="cls-1" points="643.09 476.53 642.78 476.65 642.54 476.75 582.29 500.44 586.41 560.86 586.25 561.21 545.07 649.07 542.3 649.07 541.85 648.86 581.8 563.63 583.37 560.29 583.33 559.64 579.15 498.45 642 473.74 642.54 475.14 642.78 475.74 643.09 476.53"/><path class="cls-1" d="M518.2,631.44h0c-.8-.2-1.29-1.01-1.1-1.82l37.37-150.85,48.37-12.44v-47.46h3v49.79l-48.88,12.57-36.94,149.11c-.2,.8-1.01,1.29-1.82,1.1Z"/><rect class="cls-1" x="485.74" y="580.61" width="103.83" height="3" transform="translate(-192.97 275.33) rotate(-24.5)"/><polygon class="cls-1" points="498.89 381.47 417.69 381.47 298.62 294.63 293.1 192.49 242.94 191.1 245.79 128.44 248.79 128.58 246.08 188.18 295.95 189.57 301.54 293.04 418.66 378.47 495.84 378.47 494.5 282.92 418.25 287.07 383.34 12 386.32 11.62 420.88 283.93 497.45 279.75 498.89 381.47"/><polygon class="cls-1" points="239.57 270.55 198.27 259.16 199.06 256.27 238.34 267.1 293.31 190.16 295.75 191.9 239.57 270.55"/><rect class="cls-1" x="299.67" y="286.78" width="75.84" height="3" transform="translate(-38.6 52.58) rotate(-8.43)"/><polygon class="cls-1" points="315.47 102.22 315.26 99.23 392.53 93.71 450.5 39.88 452.54 42.08 393.8 96.63 393.27 96.66 315.47 102.22"/><rect class="cls-1" x="349.82" y="180.5" width="57.52" height="3" transform="translate(-33.07 265.58) rotate(-37.15)"/><path class="cls-1" d="M272.98,64.83l-46.76-7.08,.45-2.97,44.93,6.81,36.2-50.47c.48-.67,1.41-.83,2.09-.35h0c.68,.48,.83,1.42,.35,2.1l-37.26,51.96Z"/><rect class="cls-1" x="272.88" y="63.14" width="3" height="61.27" transform="translate(-5.74 18.88) rotate(-3.9)"/><polygon class="cls-1" points="71.79 321.4 64.69 327.13 25.65 358.67 22.63 361.11 .15 379.27 .15 375.4 22.67 357.21 25.69 354.77 64.75 323.23 69.91 319.06 71.79 321.4"/><polygon class="cls-1" points="65.81 439.55 22.11 408.53 23.5 281.32 26.5 281.35 25.12 406.99 67.55 437.1 65.81 439.55"/><polygon class="cls-1" points="342.54 549.36 333.94 554.58 265.32 596.24 255.83 649.07 252.79 649.07 262.17 596.81 262.61 594.38 263.55 593.81 334.43 550.77 340.98 546.79 342.54 549.36"/><path class="cls-1" d="M631.89,285.43l-106.41-108.62,2.11-2.13,106.44,108.65c.57,.59,.57,1.52,0,2.1h0c-.59,.6-1.55,.59-2.14,0Z"/><rect class="cls-1" x="507.22" y="213.84" width="116.44" height="3" transform="translate(-19.19 371.24) rotate(-35.78)"/><path class="cls-1" d="M546.48,271.63l-.99-2.83,55.04-19.26,21.24-37.3c.41-.72,1.32-.97,2.04-.57h0c.73,.41,.98,1.33,.57,2.05l-21.78,38.27-56.11,19.64Z"/><rect class="cls-1" x="609.79" y="249.65" width="3" height="85.6" transform="translate(-50.46 146.55) rotate(-13.13)"/><path class="cls-1" d="M508.63,117.72L490.57,7.98c-.13-.82,.42-1.59,1.24-1.72h0c.82-.13,1.59,.42,1.72,1.24l17.57,106.81,61.05-9.5,.46,2.96-63.99,9.95Z"/><rect class="cls-1" x="435.9" y="159.7" width="101.58" height="3" transform="translate(121.17 520.72) rotate(-62.85)"/><polygon class="cls-1" points="642.78 358.29 642.78 361.09 549.91 412.11 544.9 414.86 542.1 414.51 387.52 395.36 342.11 395.36 258.98 435.49 250.33 439.67 140.91 492.49 140.85 492.51 .15 546.64 .15 543.41 139.72 489.73 250.82 436.1 259.47 431.92 341.42 392.36 362.65 392.36 387.79 392.37 541.8 411.45 544.3 411.76 549.6 408.85 642.52 357.82 642.78 358.29"/><polygon class="cls-1" points="180.53 621.18 179.1 541.16 182.1 541.1 183.45 616.68 237.26 593.81 263.96 593.81 263.96 596.81 237.87 596.81 180.53 621.18"/><path class="cls-1" d="M270.75,542.19l.05-2.48c.01-.67,1.39-66.72,1.39-70.82h3c0,3.73-1.08,56.1-1.34,68.4l67.24-33.62,1.34,2.68-71.69,35.84Z"/><polygon class="cls-4" points="333.43 586.97 333.43 586.98 333.17 588.75 324.44 649.07 270.7 649.07 279.24 611.98 329.59 588.74 333.43 586.97"/><polygon class="cls-1" points="334.06 588.34 333.73 588.5 333.72 588.5 333.17 588.75 329.37 590.51 280.54 613.04 272.24 649.07 269.16 649.07 277.95 610.93 329.81 586.99 332.8 585.61 333.43 586.97 333.43 586.98 334.06 588.34"/><path class="cls-1" d="M29.14,256.69L5.15,123.05l2.95-.53,23.99,133.64c.15,.82-.4,1.6-1.21,1.74h0c-.82,.15-1.59-.4-1.74-1.21Z"/><rect class="cls-1" x="-12.92" y="171.52" width="102.33" height="3" transform="translate(-138.75 164.53) rotate(-74.79)"/><rect class="cls-1" x="68.44" y="338.84" width="204.75" height="3" transform="translate(-67.64 43.44) rotate(-12.12)"/><rect class="cls-1" x="118.6" y="351.44" width="3" height="86.63" transform="translate(-7.87 2.48) rotate(-1.15)"/><rect class="cls-1" x="199.15" y="320.19" width="3" height="92.84" transform="translate(-216.97 350.72) rotate(-59.13)"/><polygon class="cls-4" points="237.23 .09 230.21 55.31 229.83 58.3 221.82 121.32 220.8 129.31 204.48 257.76 204.09 260.77 201.76 279.09 201.76 279.1 200.96 285.43 196.46 285.38 73.33 283.91 65.32 283.81 26.48 283.35 23.48 283.31 .15 283.03 .15 275.03 65.44 275.81 69.35 275.85 69.53 275.86 72.35 275.89 73.44 275.9 127.7 276.55 130.7 276.59 193.92 277.34 212.76 129.19 213.77 121.2 229.17 .09 237.23 .09"/><polygon class="cls-4" points="275.26 316.57 266.6 379.83 265.38 388.77 265.37 388.77 259.47 431.92 258.98 435.49 253.04 478.84 251.5 490.1 237.3 593.81 236.83 597.25 229.74 649.07 221.67 649.07 228.26 600.89 228.74 597.43 242.48 497 242.49 497 244.02 485.75 244.03 485.75 250.33 439.67 250.82 436.1 256.88 391.81 258.11 382.87 266.53 321.32 266.56 321.11 262.59 319.09 196.46 285.38 195.62 284.95 199.26 277.82 201.76 279.09 201.76 279.1 275.26 316.57"/><polygon class="cls-4" points="642.66 352.17 459.66 208.46 444.13 0 452.82 .17 467.38 204.34 643.18 341.44 642.66 352.17"/><g><polygon class="cls-3" points="151.24 .09 79.31 119.21 76.33 124.15 75.64 125.3 75.61 127.16 75.16 158.44 75.11 161.68 74.2 224.31 74.15 227.31 73.44 275.9 73.36 281.33 73.33 283.91 72.22 359.99 72.17 363.07 70.91 449.83 70.8 457.19 69.69 458.33 69.04 459 .15 529.75 .15 518.28 62.84 453.89 63.08 437.6 63.13 433.96 64.69 327.13 64.75 323.23 65.32 283.81 65.44 275.81 67.61 127.04 67.67 123.01 70.05 119.08 141.9 .09 151.24 .09"/><polygon class="cls-3" points="405.67 .09 386.62 13.95 383.84 15.97 331.52 54.02 318.46 99 317.57 102.07 310.59 126.08 310.59 126.09 309.28 130.62 303.93 130.54 248.74 129.72 245.73 129.68 220.8 129.31 212.76 129.19 130.7 127.98 129.2 127.95 127.7 127.93 75.61 127.16 72.35 127.11 71.62 127.1 69.35 127.07 67.61 127.04 52.37 126.82 52.36 126.82 49.26 126.77 8.77 126.17 5.7 126.13 .15 126.04 .15 118.04 70.05 119.08 79.31 119.21 213.77 121.2 221.82 121.32 274.81 122.11 277.82 122.15 303.3 122.53 324.6 49.16 392.07 .09 405.67 .09"/><polygon class="cls-3" points="380.57 251.56 380.14 254.96 369.03 342.27 368.71 344.74 368.59 345.66 367.68 352.85 362.65 392.36 362.27 395.36 361.85 398.68 360.83 406.63 338.04 585.78 337.66 588.75 329.98 649.07 321.91 649.07 329.37 590.51 329.59 588.74 329.81 586.99 333.94 554.58 334.43 550.77 339.92 507.61 340.38 504.02 351.94 413.17 353.36 402 354.21 395.36 354.59 392.36 359.33 355.16 360.46 346.25 361.22 340.28 361.65 336.89 368.22 285.25 368.62 282.16 372.31 253.16 303.93 130.54 302.8 128.52 309.78 124.63 310.59 126.08 310.59 126.09 378.05 247.04 380.57 251.56"/><polygon class="cls-3" points="642.78 399.99 642.78 408.44 605.84 420.92 602.84 421.94 551.29 439.36 548.49 440.31 547.47 440.13 542.81 439.29 470.21 426.26 467.27 425.74 400.19 413.7 397.23 413.16 360.83 406.63 360.54 406.58 351.94 413.17 275.15 471.99 272.11 474.32 251.5 490.1 242.49 496.99 242.48 497 182.14 543.23 179.18 545.49 136.39 578.27 133.33 580.61 128.57 580.19 48.07 573.13 46.49 572.99 44.91 572.85 .15 568.93 .01 568.92 0 564.75 .15 564.77 .15 560.9 130.93 572.37 244.02 485.76 244.03 485.75 253.04 478.84 353.36 402 358.48 398.08 361.85 398.68 543.69 431.32 543.7 431.32 547.88 432.07 551.69 430.78 642.78 399.99"/><polygon class="cls-3" points="642.78 201.85 642.78 212.8 611.75 183.82 609.51 181.73 578.95 153.18 530.79 177.84 527.98 179.28 471.99 207.94 464.15 211.95 414.94 237.14 412.1 238.6 380.14 254.96 378.26 255.92 374.62 248.8 378.05 247.04 411.03 230.16 413.87 228.71 459.44 205.38 463.4 203.35 467.17 201.42 467.97 201.01 575.27 146.08 580.31 143.5 583.39 146.38 642.78 201.85"/><polygon class="cls-3" points="583.59 147.79 575.67 148.9 575.27 146.08 569.94 108.18 569.53 105.21 554.74 .09 562.82 .09 562.9 .65 569.84 49.98 570.08 51.69 570.31 53.39 583.39 146.38 583.59 147.79"/><path class="cls-3" d="M552.25,436.7l-.96,2.66-58,161.33-1.42,3.94-15.98,44.44h-8.5l6.52-18.13,1.12-3.12,43.26-120.33,1.05-2.91,23.47-65.29,1.3-3.61-.41-4.36h-.01l-1.59-16.81-.3-3.06-6.59-69.24c-.17-1.83-1.79-3.18-3.62-3.02l-33.27,2.77-3,.25-113.42,9.46-4.56,.38-9.67,.8-2.48,.21-5.87,2.1-93.95,33.61-8.5,3.04-187.84,67.19-.87,.31-2.7-7.53,5.44-1.95,48.44-17.32,2.98-1.07,115.03-41.15,3.64-1.3,17.11-6.12,8.49-3.04,93.86-33.58,3.03-1.08,.52-.04,3.46-.29,1.24-.1,3.33-.28,123.18-10.27,3-.25,39.25-3.27c2.57-.21,4.83,1.68,5.08,4.25l7.05,73.94,.31,3.26,1.78,18.67,.56,5.92Z"/></g></g></g></svg>