<svg width="1512" height="895" viewBox="0 0 1512 895" fill="none" xmlns="http://www.w3.org/2000/svg">
<path fill-rule="evenodd" clip-rule="evenodd" d="M1512 36.9846V446.877H0V46.8283L90.5625 33.4408L100.8 26.7471L149.625 31.4721L197.269 38.1658L212.625 44.8596L256.725 29.5033L289.8 31.4721L378.787 15.3283L418.556 33.0471L444.544 26.3533L474.862 31.8658L521.719 26.3533H567L614.053 32.0627L635.906 44.8596L647.325 50.3721L667.8 54.7033L711.112 55.8846L756.787 46.4346L851.189 45.2533L898.144 39.3471L919.8 51.5533L948.15 45.2533L1039.89 51.5533L1080.45 49.1908L1098.17 40.5283L1090.29 18.8721L1126.12 19.2658L1147.98 14.7377L1178.89 15.7221L1202.12 9.42206H1221.02L1236.77 11.7846L1257.64 18.4783H1264.72L1279.69 5.09082L1291.5 11.7846L1313.94 7.45331L1322.61 12.5721L1332.84 7.45331L1348.2 18.4783L1363.46 14.8361L1375.76 15.7221L1388.76 24.7783L1408.44 29.1096L1459.63 36.5908L1484.44 33.4408L1512 36.9846ZM0 856.778V446.885H1512V846.934L1421.44 860.321L1411.2 867.015L1362.38 862.29L1314.73 855.596L1299.38 848.903L1255.28 864.259L1222.2 862.29L1133.21 878.434L1093.44 860.715L1067.46 867.409L1037.14 861.896L990.281 867.409H945L897.947 861.699L876.094 848.903L864.675 843.39L844.2 839.059L800.888 837.878L755.213 847.328L660.811 848.509L613.856 854.415L592.2 842.209L563.85 848.509L472.106 842.209L431.55 844.571L413.831 853.234L421.706 874.89L385.875 874.496L364.022 879.024L333.113 878.04L309.881 884.34H290.981L275.231 881.978L254.363 875.284H247.275L232.312 888.671L220.5 881.978L198.056 886.309L189.394 881.19L179.156 886.309L163.8 875.284L148.542 878.926L136.238 878.04L123.244 868.984L103.556 864.653L52.3688 857.171L27.5625 860.321L0 856.778Z" fill="white"/>
<path d="M16.5461 859.445L0 858.264V848.421L16.5461 848.815C20.8796 855.115 32.3043 856.69 36.2439 856.69C40.1834 856.69 44.5169 851.965 45.6988 851.178C46.8807 850.39 61.851 850.39 67.7603 851.178C73.6696 851.965 75.6394 857.084 76.4273 857.084C77.2152 857.084 88.6399 855.508 91.0036 855.114C92.8946 854.799 98.0948 856.82 100.459 857.87C102.35 863.855 107.287 863.252 109.52 862.202C123.702 859.445 126.46 863.383 131.975 870.47C137.49 877.558 140.642 876.377 141.036 876.377C146.709 872.912 155.218 870.208 158.764 869.289C169.007 868.108 169.007 881.889 178.856 883.07C181.824 883.426 186.866 878.477 189.098 875.589C189.492 878.345 199.341 887.402 204.463 884.252C208.56 881.732 216.675 877.689 220.221 875.983C222.191 882.283 228.494 886.22 231.646 886.22C234.797 886.22 241.888 879.527 241.888 877.164C241.888 874.802 247.404 868.502 247.404 869.683C247.404 870.628 251.343 871.652 253.313 872.045C253.313 872.439 254.574 872.754 259.616 870.864C264.344 870.077 275.375 879.527 278.526 879.527C281.048 879.527 283.516 877.952 284.436 877.164C288.533 884.094 291.921 882.939 293.103 881.495C293.628 880.577 296.176 878.188 302.164 875.983C309.649 873.227 308.467 883.07 310.437 881.495C312.406 879.92 321.467 875.589 328.559 873.227C335.65 870.864 340.771 875.983 350.226 877.164C359.681 878.345 370.712 870.47 377.803 868.502C384.894 866.533 399.077 872.045 407.744 873.227C416.411 874.408 420.35 871.258 421.138 872.045C421.768 872.675 426.128 876.245 428.229 877.952C419.72 884.252 390.278 880.577 376.621 877.952C369.372 882.677 351.014 884.645 342.741 885.039C332.025 877.794 316.74 885.17 310.437 889.764C306.97 881.889 299.275 885.695 295.86 888.583C288.927 893.938 285.88 888.452 285.224 885.039C281.757 889.449 278.526 888.452 277.344 887.402C263.95 880.708 259.223 877.952 256.859 879.527C254.495 881.102 252.525 880.708 251.343 880.708C250.398 880.708 248.323 878.87 247.404 877.952C246.747 877.82 245.276 878.188 244.646 880.708C244.016 883.228 238.868 889.633 236.373 892.52C230.07 897.875 222.979 888.714 220.221 883.464L213.13 887.402C205.251 892.442 201.18 892.914 200.129 892.52C196.662 892.835 191.068 886.614 188.705 883.464C183.583 890.158 174.128 895.277 168.219 883.464C162.31 871.652 146.551 883.464 144.976 883.464C139.303 887.244 136.571 885.039 135.915 883.464C123.308 870.549 116.742 869.683 115.035 870.864C101.483 874.014 99.6707 869.552 100.459 866.927L90.2157 864.958C88.3247 865.903 80.2355 866.664 76.4273 866.927C69.8089 858.107 52.9213 859.839 45.3048 861.808C34.2741 871.573 21.5362 864.302 16.5461 859.445Z" fill="white"/>
<path d="M410.501 848.815C410.107 849.603 414.835 855.509 414.835 855.903C425.866 849.602 439.129 848.028 444.381 848.028C457.303 840.153 466.837 844.747 469.989 848.028C482.595 841.728 483.777 851.965 503.475 850.784C519.233 854.879 532.102 852.228 536.567 850.39C542.24 857.119 552.062 856.344 556.265 855.115C581.793 842.2 591.064 845.272 592.509 848.422C600.388 844.485 607.479 857.872 612.6 859.447C617.722 861.022 620.085 853.934 620.479 853.934C620.873 853.934 625.995 855.903 633.874 857.478C640.177 858.738 654.622 855.64 661.057 853.934C669.566 856.769 694.28 855.115 705.574 853.934C714.635 857.084 708.331 857.872 730.393 852.753C752.454 847.634 747.727 854.328 755.606 851.572C761.909 849.367 773.991 850.128 779.243 850.784C780.688 849.734 784.207 847.555 786.728 847.24C789.25 846.925 791.456 847.897 792.244 848.422C792.244 846.847 795.658 844.353 797.365 843.303C817.457 839.759 834.791 846.059 835.579 846.059C836.367 846.059 835.579 847.24 841.488 844.484C847.398 841.728 850.943 848.422 851.337 848.422C863.156 842.515 866.307 849.997 868.671 851.965C871.035 853.934 882.46 856.297 887.581 858.659C892.702 861.022 900.188 869.29 904.521 870.865C907.988 872.125 926.189 871.128 934.856 870.472C938.401 874.803 962.039 872.834 966.372 871.653C970.706 870.472 975.433 874.409 976.615 873.228C977.797 872.047 994.737 872.834 1012.86 867.322C1027.36 862.912 1046.74 865.484 1054.62 867.322C1065.65 879.922 1078.26 870.078 1082.59 866.534C1086.06 863.699 1090.34 864.04 1092.04 864.565C1094.28 865.484 1099.13 867.322 1100.71 867.322C1102.68 867.322 1110.17 874.015 1112.53 874.409C1114.42 874.724 1116.21 873.753 1116.86 873.228C1121.98 880.315 1125.14 880.709 1133.02 884.253C1139.32 887.088 1155.08 878.084 1162.17 873.228C1169.26 877.165 1177.14 873.622 1184.23 872.44C1189.9 871.495 1193.42 872.047 1194.47 872.44C1200.12 869.947 1215.04 865.904 1229.53 869.684C1244.03 873.464 1255.54 868.897 1259.47 866.14C1273.26 866.14 1288.63 855.903 1292.96 854.328C1297.29 852.753 1307.54 853.54 1307.54 854.328C1307.54 855.115 1311.87 862.597 1312.66 862.597C1313.29 862.597 1314.23 861.547 1314.63 861.022C1320.93 863.542 1338.53 866.534 1346.54 867.715L1385.54 868.109C1393.1 864.959 1406.55 869.422 1412.33 872.047H1417.45V870.865C1407.6 857.872 1446.21 867.322 1448.18 867.322C1449.76 867.322 1453.56 863.909 1455.27 862.203L1453.69 861.415C1452.91 861.022 1451.72 854.722 1450.94 855.903C1450.31 856.848 1447.52 857.084 1446.21 857.084C1412.33 849.997 1416.27 855.903 1416.27 857.872C1416.27 859.84 1417.45 862.597 1415.48 862.99C1413.91 863.305 1400.38 859.447 1393.81 857.478C1391.45 858.265 1386.01 859.447 1383.18 857.872C1379.63 855.903 1347.33 859.447 1345.75 857.872C1344.18 856.297 1324.87 854.328 1320.14 853.147C1316.36 852.202 1314.63 850.915 1314.23 850.39C1314.1 850.915 1313.6 852.044 1312.66 852.359C1311.48 852.753 1309.51 846.847 1307.54 843.303C1305.96 840.468 1296.9 842.122 1292.57 843.303C1286.26 849.603 1260.66 856.297 1258.69 857.084C1256.72 857.872 1252.78 862.99 1245.69 861.415C1238.6 859.84 1215.35 859.447 1212.99 859.053C1210.62 858.659 1198.02 862.597 1193.29 863.778C1188.56 864.959 1192.11 864.172 1186.2 862.597C1180.29 861.022 1176.35 865.747 1172.02 866.14C1168.55 866.455 1164.01 864.697 1162.17 863.778C1150.35 873.228 1146.41 872.047 1137.74 875.984C1129.08 879.922 1116.86 862.99 1116.86 863.384C1116.86 863.778 1112.53 864.959 1110.17 864.565C1107.8 864.172 1101.5 858.265 1100.71 857.872C1099.92 857.478 1099.92 857.872 1094.8 855.115C1090.7 852.91 1087.05 854.197 1085.74 855.115C1082.85 857.609 1075.58 862.99 1069.59 864.565C1062.1 866.534 1056.98 859.84 1054.62 857.872C1052.25 855.903 1040.04 856.297 1039.25 856.297C1030.11 853.462 1021.26 855.115 1017.98 856.297C1007.58 859.447 984.757 862.597 974.645 863.778C972.675 859.84 950.22 866.14 941.553 863.778C934.619 861.888 932.098 860.89 931.704 860.628C919.885 863.384 907.673 861.809 903.733 860.628C899.794 859.447 891.521 846.847 887.581 847.634C884.429 848.264 872.873 842.647 867.489 839.76C861.186 829.522 855.671 835.428 854.883 835.034C854.095 834.64 851.731 837.79 850.943 836.215C850.155 834.64 846.216 832.278 843.064 833.065C839.912 833.853 836.367 833.853 835.579 833.853C829.67 829.916 809.972 831.491 805.244 831.491H797.759C794.923 831.491 792.9 835.166 792.244 837.003C790.038 832.908 783.183 837.135 780.031 839.76C775.934 837.24 768.869 838.71 765.849 839.76C762.566 840.547 754.582 841.65 748.909 839.76C741.818 837.397 733.151 840.941 730.393 842.122C727.635 843.303 715.817 845.666 710.301 845.272C704.786 844.878 706.362 841.728 704.392 842.91C702.422 844.091 671.3 844.091 666.178 842.91C662.081 841.965 655.804 843.303 653.178 844.091C638.05 849.131 624.813 845.403 620.085 842.91C618.825 846.375 615.883 848.028 614.57 848.422C610.63 850.785 602.751 840.941 599.994 837.791C597.236 834.641 595.66 835.822 594.872 836.61C594.242 837.24 592.246 836.872 591.327 836.61C583.842 830.31 564.538 839.76 555.477 844.485C546.416 849.21 537.749 839.76 536.567 839.76C535.385 839.76 527.112 843.303 524.354 842.91C522.148 842.595 509.515 840.678 503.475 839.76C502.161 840.81 497.014 841.807 486.929 837.397C476.843 832.987 471.958 835.297 470.776 837.003C465.734 831.962 460.534 831.49 458.564 831.885C454.624 830.31 444.775 837.003 443.594 837.003C434.139 834.64 410.895 848.028 410.501 848.815Z" fill="white"/>
<path d="M1455.27 851.965C1456.06 853.147 1454.48 853.147 1454.09 853.54H1467.88C1471.16 854.722 1478.43 856.297 1481.27 853.147C1484.11 849.997 1486.92 852.097 1487.97 853.54C1488.91 852.595 1504.38 851.572 1512 851.178V840.153C1510.03 838.972 1487.97 843.303 1487.18 842.122C1486.55 841.177 1485.34 840.678 1484.82 840.547C1483.5 841.465 1480.25 843.46 1477.73 844.09C1474.57 844.878 1470.63 844.09 1468.66 842.909C1466.7 841.728 1452.51 842.909 1451.33 844.09C1450.15 845.272 1452.51 846.847 1454.09 850.39C1455.66 853.934 1454.48 850.784 1455.27 851.965Z" fill="white"/>
<path d="M1495.45 34.6991L1512 35.8804V45.7232L1495.45 45.3295C1491.12 39.0295 1479.7 37.4545 1475.76 37.4545C1471.82 37.4545 1467.48 42.1795 1466.3 42.967C1465.12 43.7545 1450.15 43.7545 1444.24 42.967C1438.33 42.1795 1436.36 37.0607 1435.57 37.0607C1434.78 37.0607 1423.36 38.6366 1421 39.0304C1419.11 39.3454 1413.91 37.3241 1411.54 36.2741C1409.65 30.2891 1404.71 30.8929 1402.48 31.9429C1388.3 34.6991 1385.54 30.7616 1380.03 23.6741C1374.51 16.5866 1371.36 17.7679 1370.96 17.7679C1365.29 21.2329 1356.78 23.9366 1353.24 24.8554C1342.99 26.0366 1342.99 12.2554 1333.14 11.0741C1330.18 10.7181 1325.13 15.6679 1322.9 18.5554C1322.51 15.7991 1312.66 6.74286 1307.54 9.89286C1303.44 12.4129 1295.32 16.4554 1291.78 18.1616C1289.81 11.8616 1283.51 7.92411 1280.35 7.92411C1277.2 7.92411 1270.11 14.6179 1270.11 16.9804C1270.11 19.3429 1264.6 25.6429 1264.6 24.4616C1264.6 23.5166 1260.66 22.4929 1258.69 22.0991C1258.69 21.7054 1257.43 21.3904 1252.38 23.2804C1247.66 24.0679 1236.63 14.6179 1233.47 14.6179C1230.95 14.6179 1228.48 16.1929 1227.56 16.9804C1223.47 10.0504 1220.08 11.2054 1218.9 12.6491C1218.37 13.5679 1215.82 15.9566 1209.84 18.1616C1202.35 20.9179 1203.53 11.0741 1201.56 12.6491C1199.59 14.2241 1190.53 18.5554 1183.44 20.9179C1176.35 23.2804 1171.23 18.1616 1161.77 16.9804C1152.32 15.7991 1141.29 23.6741 1134.2 25.6429C1127.11 27.6116 1112.92 22.0991 1104.26 20.9179C1095.59 19.7366 1091.65 22.8866 1090.86 22.0991C1090.23 21.4691 1085.87 17.8991 1083.77 16.1929C1092.28 9.89286 1121.72 13.5679 1135.38 16.1929C1142.63 11.4679 1160.99 9.49911 1169.26 9.10536C1179.97 16.3504 1195.26 8.97411 1201.56 4.38036C1205.03 12.2554 1212.73 8.44911 1216.14 5.56161C1223.07 0.206608 1226.12 5.69286 1226.78 9.10536C1230.24 4.69536 1233.47 5.69286 1234.66 6.74286C1248.05 13.4366 1252.78 16.1929 1255.14 14.6179C1257.5 13.0429 1259.47 13.4366 1260.66 13.4366C1261.6 13.4366 1263.68 15.2741 1264.6 16.1929C1265.25 16.3241 1266.72 15.9566 1267.35 13.4366C1267.98 10.9166 1273.13 4.51161 1275.63 1.62411C1281.93 -3.73089 1289.02 5.43037 1291.78 10.6804L1298.87 6.74286C1306.75 1.70286 1310.82 1.23036 1311.87 1.62411C1315.34 1.30911 1320.93 7.53036 1323.3 10.6804C1328.42 3.98661 1337.87 -1.13214 1343.78 10.6804C1349.69 22.4929 1365.45 10.6804 1367.02 10.6804C1372.7 6.90036 1375.43 9.10536 1376.09 10.6804C1388.69 23.5954 1395.26 24.4616 1396.97 23.2804C1410.52 20.1304 1412.33 24.5929 1411.54 27.2179L1421.78 29.1866C1423.68 28.2416 1431.76 27.4804 1435.57 27.2179C1442.19 36.0379 1459.08 34.3054 1466.7 32.3366C1477.73 22.5716 1490.46 29.8429 1495.45 34.6991Z" fill="white"/>
<path d="M1101.5 45.3295C1101.89 44.542 1097.17 38.6357 1097.17 38.242C1086.13 44.5422 1072.87 46.1169 1067.62 46.1166C1054.7 53.9916 1045.16 49.3979 1042.01 46.1166C1029.4 52.4166 1028.22 42.1791 1008.53 43.3604C992.767 39.2654 979.898 41.9166 975.433 43.7542C969.76 37.0254 959.937 37.8005 955.735 39.0292C930.207 51.9441 920.936 48.8726 919.491 45.7225C911.612 49.6596 904.521 36.2729 899.4 34.6979C894.278 33.1229 891.915 40.2104 891.521 40.2104C891.127 40.2104 886.005 38.2416 878.126 36.6666C871.823 35.4067 857.378 38.5042 850.943 40.2104C842.434 37.3754 817.72 39.0292 806.426 40.2104C797.365 37.0604 803.669 36.2729 781.607 41.3916C759.546 46.5104 764.273 39.8166 756.394 42.5729C750.091 44.7779 738.009 44.0166 732.757 43.3604C731.312 44.4104 727.793 46.5891 725.272 46.9042C722.75 47.2191 720.544 46.2479 719.756 45.7229C719.756 47.2979 712.207 45.8541 710.5 46.9042C690.408 50.4479 683.788 45.7229 683 45.7229C682.212 45.7229 676.421 46.9042 670.512 49.6604C664.602 52.4167 661.057 45.7229 660.663 45.7229C648.844 51.6292 646.874 42.1791 644.511 40.2104C642.147 38.2416 629.54 37.8479 624.419 35.4854C619.298 33.1229 611.812 24.8541 607.479 23.2791C604.012 22.0191 585.811 23.0166 577.144 23.6729C573.599 19.3416 549.961 21.3104 545.628 22.4916C541.294 23.6729 536.567 19.7354 535.385 20.9166C534.203 22.0979 517.263 21.3104 499.141 26.8229C484.644 31.2329 465.261 28.6604 457.382 26.8229C446.351 14.2229 433.745 24.0667 429.411 27.6104C425.944 30.4454 421.663 30.1042 419.956 29.5792C417.724 28.6604 412.865 26.8229 411.289 26.8229C409.32 26.8229 401.834 20.1291 399.471 19.7354C397.58 19.4204 395.794 20.3916 395.137 20.9166C390.016 13.8291 386.864 13.4354 378.985 9.89165C372.682 7.05665 356.923 16.0604 349.832 20.9166C342.741 16.9791 334.862 20.5229 327.771 21.7041C322.098 22.6491 318.578 22.0979 317.528 21.7041C311.881 24.1979 296.964 28.2404 282.466 24.4604C267.968 20.6804 256.465 25.2479 252.525 28.0042C238.737 28.0042 223.373 38.2416 219.039 39.8167C214.706 41.3917 204.463 40.6042 204.463 39.8167C204.463 39.0292 200.129 31.5479 199.341 31.5479C198.711 31.5479 197.766 32.5979 197.372 33.1229C191.068 30.6029 173.472 27.6104 165.461 26.4291L126.46 26.0354C118.896 29.1854 105.449 24.7229 99.6707 22.0979H94.5493V23.2791C104.398 36.2729 65.7905 26.8229 63.8208 26.8229C62.245 26.8229 58.4368 30.2354 56.7296 31.9417L58.3054 32.7291C59.0934 33.1229 60.2751 39.4229 61.0631 38.2416C61.6935 37.2966 64.4774 37.0604 65.7905 37.0604C99.6707 44.1479 95.7312 38.2416 95.7312 36.2729C95.7312 34.3041 94.5493 31.5479 96.519 31.1542C98.0948 30.8391 111.621 34.6979 118.187 36.6666C120.55 35.8791 125.987 34.6979 128.823 36.2729C132.369 38.2416 164.673 34.6979 166.249 36.2729C167.825 37.8479 187.129 39.8167 191.856 40.9979C195.638 41.9429 197.372 43.2292 197.766 43.7542C197.897 43.2292 198.396 42.1004 199.341 41.7854C200.523 41.3917 202.493 47.2979 204.463 50.8417C206.039 53.6767 215.1 52.0229 219.433 50.8417C225.736 44.5416 251.344 37.8479 253.313 37.0604C255.283 36.2729 259.223 31.1541 266.314 32.7291C273.405 34.3041 296.648 34.6979 299.012 35.0917C301.376 35.4854 313.982 31.5479 318.71 30.3666C323.437 29.1854 319.892 29.9729 325.801 31.5479C331.71 33.1229 335.65 28.3979 339.983 28.0042C343.45 27.6891 347.994 29.4479 349.832 30.3666C361.651 20.9166 365.59 22.0979 374.257 18.1604C382.924 14.2229 395.137 31.1541 395.137 30.7604C395.137 30.3666 399.471 29.1854 401.834 29.5792C404.198 29.9729 410.501 35.8792 411.289 36.2729C412.077 36.6666 412.077 36.2729 417.199 39.0292C421.296 41.2341 424.946 39.9479 426.26 39.0292C429.148 36.5354 436.424 31.1542 442.412 29.5792C449.897 27.6104 455.018 34.3041 457.382 36.2729C459.746 38.2416 471.958 37.8479 472.746 37.8479C481.886 40.6829 490.737 39.0292 494.02 37.8479C504.42 34.6979 527.243 31.5479 537.355 30.3666C539.325 34.3041 561.78 28.0042 570.447 30.3666C577.381 32.2567 579.902 33.2542 580.296 33.5166C592.115 30.7604 604.327 32.3354 608.267 33.5166C612.206 34.6979 620.479 47.2979 624.419 46.5104C627.571 45.8804 639.127 51.4976 644.511 54.385C650.814 64.6221 656.329 58.7167 657.117 59.1104C657.905 59.5042 660.269 56.3541 661.057 57.9292C661.845 59.5042 665.784 61.8667 668.936 61.0792C672.088 60.2917 675.633 60.2912 676.421 60.2912C682.33 64.2287 702.028 62.6537 706.756 62.6537H714.241C717.077 62.6537 719.1 58.9787 719.756 57.1412C721.962 61.2362 728.817 57.01 731.969 54.385C736.066 56.905 743.131 55.435 746.151 54.385C749.434 53.5975 757.418 52.495 763.091 54.385C770.182 56.7475 778.849 53.2037 781.607 52.0225C784.365 50.8412 796.183 48.4787 801.699 48.8725C807.214 49.2662 805.638 52.4162 807.608 51.235C809.578 50.0537 840.7 50.0537 845.822 51.235C849.919 52.18 856.196 50.8412 858.822 50.0537C873.95 45.0137 887.187 48.7412 891.915 51.235C893.175 47.77 896.117 46.1162 897.43 45.7225C901.37 43.36 909.249 53.2037 912.006 56.3537C914.764 59.5037 916.34 58.3225 917.128 57.535C917.758 56.905 919.754 57.2725 920.673 57.535C928.158 63.835 947.462 54.385 956.523 49.66C965.584 44.935 974.251 54.385 975.433 54.385C976.615 54.385 984.888 50.8412 987.646 51.235C989.852 51.55 1002.48 53.4662 1008.53 54.385C1009.84 53.335 1014.99 52.3375 1025.07 56.7475C1035.16 61.1575 1040.04 58.848 1041.22 57.142C1046.27 62.1826 1051.47 62.6542 1053.44 62.2599C1057.38 63.8349 1067.22 57.142 1068.41 57.142C1077.86 59.5045 1101.1 46.117 1101.5 45.3295Z" fill="white"/>
<path d="M56.7296 42.1791C55.9417 40.9979 57.5176 40.9979 57.9115 40.6041H44.123C40.8401 39.4229 33.5649 37.8479 30.7285 40.9979C27.8921 44.1479 25.0819 42.0479 24.0314 40.6041C23.0859 41.5491 7.61646 42.5729 0 42.9667V53.9917C1.96973 55.1729 24.0312 50.8417 24.8192 52.0229C25.4496 52.9679 26.6577 53.4667 27.183 53.5979C28.4961 52.6791 31.7529 50.6841 34.2742 50.0541C37.4258 49.2666 41.3654 50.0541 43.3351 51.2354C45.3048 52.4167 59.4873 51.2354 60.6692 50.0541C61.8511 48.8729 59.4873 47.2979 57.9115 43.7542C56.3357 40.2104 57.5176 43.3604 56.7296 42.1791Z" fill="white"/>
</svg>
