<svg width="24" height="23" fill="none" xmlns="http://www.w3.org/2000/svg" class="mr-2" viewBox="0 0 13 16"><path d="m6.848 7.641-6.785 7.03.001.004A1.825 1.825 0 0 0 1.834 16c.339 0 .657-.09.93-.246l.022-.013 7.637-4.301L6.848 7.64Z" fill="#EA4335"></path><path d="m13.713 6.444-.007-.004-3.297-1.866L6.694 7.8l3.728 3.638 3.28-1.847c.575-.303.965-.894.965-1.577 0-.677-.385-1.266-.954-1.57Z" fill="#FBBC04"></path><path d="M.062 1.33c-.04.146-.062.3-.062.46v12.42c0 .16.021.315.062.46l7.02-6.849L.061 1.33Z" fill="#4285F4"></path><path d="m6.898 8 3.512-3.427L2.78.256A1.871 1.871 0 0 0 1.834 0C.986 0 .27.563.063 1.327v.002L6.897 8Z" fill="#34A853"></path></svg>